<svg width="47" height="47" viewBox="0 0 47 47" fill="none" xmlns="http://www.w3.org/2000/svg">
<path d="M7.83333 35.25C6.75177 35.25 5.875 34.3732 5.875 33.2917C5.875 32.2101 6.75178 31.3333 7.83333 31.3333H39.1667C40.2482 31.3333 41.125 32.2101 41.125 33.2917C41.125 34.3732 40.2482 35.25 39.1667 35.25H7.83333ZM7.83333 25.4583C6.75177 25.4583 5.875 24.5816 5.875 23.5C5.875 22.4184 6.75178 21.5417 7.83333 21.5417H39.1667C40.2482 21.5417 41.125 22.4184 41.125 23.5C41.125 24.5816 40.2482 25.4583 39.1667 25.4583H7.83333ZM7.83333 15.6667C6.75177 15.6667 5.875 14.7899 5.875 13.7083C5.875 12.6268 6.75178 11.75 7.83333 11.75H39.1667C40.2482 11.75 41.125 12.6268 41.125 13.7083C41.125 14.7899 40.2482 15.6667 39.1667 15.6667H7.83333Z" fill="white"/>
</svg>
